<svg width="720" height="520" viewBox="0 0 720 520" fill="none" xmlns="http://www.w3.org/2000/svg">
  <defs>
    <linearGradient id="g1" x1="90" y1="40" x2="620" y2="460" gradientUnits="userSpaceOnUse">
      <stop stop-color="#005F73"/>
      <stop offset="0.55" stop-color="#0A9396"/>
      <stop offset="1" stop-color="#EE9B00"/>
    </linearGradient>
  </defs>
  <rect x="20" y="20" width="680" height="480" rx="26" fill="#F8FCFD"/>
  <rect x="48" y="48" width="624" height="424" rx="22" fill="white" stroke="#D5E8EB"/>

  <rect x="86" y="88" width="156" height="64" rx="14" fill="#E8F4F6" stroke="#B4D8DE"/>
  <text x="106" y="128" fill="#134E5E" font-family="Space Grotesk, sans-serif" font-size="22" font-weight="600">Gateway</text>

  <rect x="284" y="88" width="156" height="64" rx="14" fill="#E9F8F7" stroke="#9AD7D4"/>
  <text x="304" y="128" fill="#0B6C73" font-family="Space Grotesk, sans-serif" font-size="22" font-weight="600">Agent</text>

  <rect x="482" y="88" width="156" height="64" rx="14" fill="#FFF5E7" stroke="#F0C77E"/>
  <text x="496" y="128" fill="#A16500" font-family="Space Grotesk, sans-serif" font-size="22" font-weight="600">Model</text>

  <rect x="86" y="206" width="252" height="102" rx="16" fill="#F2F9FA" stroke="#B6D9DE"/>
  <text x="106" y="246" fill="#134E5E" font-family="IBM Plex Sans, sans-serif" font-size="20" font-weight="600">ADB Runtime</text>
  <text x="106" y="274" fill="#35606A" font-family="IBM Plex Sans, sans-serif" font-size="16">tap / swipe / type / shell</text>

  <rect x="382" y="206" width="256" height="102" rx="16" fill="#FDF6E9" stroke="#F2CF92"/>
  <text x="402" y="246" fill="#A16500" font-family="IBM Plex Sans, sans-serif" font-size="20" font-weight="600">Script Executor</text>
  <text x="402" y="274" fill="#946116" font-family="IBM Plex Sans, sans-serif" font-size="16">allowlist + timeout + artifacts</text>

  <rect x="86" y="338" width="552" height="100" rx="18" fill="url(#g1)" opacity="0.15"/>
  <text x="108" y="376" fill="#114A58" font-family="Space Grotesk, sans-serif" font-size="22" font-weight="700">Workspace Persistence</text>
  <text x="108" y="405" fill="#2E606C" font-family="IBM Plex Sans, sans-serif" font-size="16">sessions, daily memory, screenshots, script runs</text>

  <path d="M242 120H284" stroke="#0A9396" stroke-width="4" stroke-linecap="round"/>
  <path d="M440 120H482" stroke="#0A9396" stroke-width="4" stroke-linecap="round"/>
  <path d="M360 152V206" stroke="#0A9396" stroke-width="4" stroke-linecap="round"/>
  <path d="M212 308V338" stroke="#0A9396" stroke-width="4" stroke-linecap="round"/>
  <path d="M510 308V338" stroke="#0A9396" stroke-width="4" stroke-linecap="round"/>
</svg>
